<mxfile host="app.diagrams.net" modified="2022-09-25T20:29:28.855Z" agent="5.0 (Windows NT 10.0; Win64; x64) AppleWebKit/537.36 (KHTML, like Gecko) Chrome/105.0.0.0 Safari/537.36" etag="ojC8WEGEtNfp4Ot-fN-8" version="20.3.6" type="github">
  <diagram id="R2lEEEUBdFMjLlhIrx00" name="Page-1">
    <mxGraphModel dx="1038" dy="1671" grid="1" gridSize="10" guides="1" tooltips="1" connect="1" arrows="1" fold="1" page="1" pageScale="1" pageWidth="850" pageHeight="1100" math="0" shadow="0" extFonts="Permanent Marker^https://fonts.googleapis.com/css?family=Permanent+Marker">
      <root>
        <mxCell id="0" />
        <mxCell id="1" parent="0" />
        <mxCell id="Yzbr4fYwRBms3z87Z39M-1" value="" style="whiteSpace=wrap;html=1;" vertex="1" parent="1">
          <mxGeometry x="130" y="-1010" width="590" height="800" as="geometry" />
        </mxCell>
        <mxCell id="Yzbr4fYwRBms3z87Z39M-2" value="Cliente" style="shape=umlActor;verticalLabelPosition=bottom;verticalAlign=top;html=1;outlineConnect=0;" vertex="1" parent="1">
          <mxGeometry x="30" y="-820" width="30" height="60" as="geometry" />
        </mxCell>
        <mxCell id="Yzbr4fYwRBms3z87Z39M-3" value="Mesero" style="shape=umlActor;verticalLabelPosition=bottom;verticalAlign=top;html=1;outlineConnect=0;" vertex="1" parent="1">
          <mxGeometry x="780" y="-960" width="30" height="60" as="geometry" />
        </mxCell>
        <mxCell id="Yzbr4fYwRBms3z87Z39M-4" value="Tomar órdenes" style="ellipse;whiteSpace=wrap;html=1;" vertex="1" parent="1">
          <mxGeometry x="365" y="-970" width="120" height="80" as="geometry" />
        </mxCell>
        <mxCell id="Yzbr4fYwRBms3z87Z39M-5" value="Cobrar órdenes (Tarjeta)" style="ellipse;whiteSpace=wrap;html=1;" vertex="1" parent="1">
          <mxGeometry x="365" y="-870" width="120" height="80" as="geometry" />
        </mxCell>
        <mxCell id="Yzbr4fYwRBms3z87Z39M-6" value="Ver el estado de su comida" style="ellipse;whiteSpace=wrap;html=1;" vertex="1" parent="1">
          <mxGeometry x="365" y="-650" width="120" height="80" as="geometry" />
        </mxCell>
        <mxCell id="Yzbr4fYwRBms3z87Z39M-7" value="Ver reporte de&amp;nbsp;e ventas diarias,&lt;br/&gt;semanales y mensuales " style="ellipse;whiteSpace=wrap;html=1;" vertex="1" parent="1">
          <mxGeometry x="365" y="-440" width="120" height="80" as="geometry" />
        </mxCell>
        <mxCell id="Yzbr4fYwRBms3z87Z39M-8" value="Ver el uso de los ingredientes" style="ellipse;whiteSpace=wrap;html=1;" vertex="1" parent="1">
          <mxGeometry x="365" y="-540" width="120" height="80" as="geometry" />
        </mxCell>
        <mxCell id="Yzbr4fYwRBms3z87Z39M-9" value="Gerente" style="shape=umlActor;verticalLabelPosition=bottom;verticalAlign=top;html=1;outlineConnect=0;" vertex="1" parent="1">
          <mxGeometry x="780" y="-560" width="30" height="60" as="geometry" />
        </mxCell>
        <mxCell id="Yzbr4fYwRBms3z87Z39M-10" value="Gerente de inventario" style="shape=umlActor;verticalLabelPosition=bottom;verticalAlign=top;html=1;outlineConnect=0;" vertex="1" parent="1">
          <mxGeometry x="780" y="-690" width="30" height="60" as="geometry" />
        </mxCell>
        <mxCell id="Yzbr4fYwRBms3z87Z39M-14" value="" style="endArrow=none;html=1;rounded=0;exitX=1;exitY=0.5;exitDx=0;exitDy=0;" edge="1" parent="1" source="Yzbr4fYwRBms3z87Z39M-4" target="Yzbr4fYwRBms3z87Z39M-3">
          <mxGeometry width="50" height="50" relative="1" as="geometry">
            <mxPoint x="190" y="-790" as="sourcePoint" />
            <mxPoint x="240" y="-840" as="targetPoint" />
          </mxGeometry>
        </mxCell>
        <mxCell id="Yzbr4fYwRBms3z87Z39M-15" value="" style="endArrow=classic;html=1;rounded=0;exitX=0;exitY=0.5;exitDx=0;exitDy=0;entryX=0.5;entryY=0.5;entryDx=0;entryDy=0;entryPerimeter=0;" edge="1" parent="1" source="Yzbr4fYwRBms3z87Z39M-4" target="Yzbr4fYwRBms3z87Z39M-2">
          <mxGeometry width="50" height="50" relative="1" as="geometry">
            <mxPoint x="520" y="-790" as="sourcePoint" />
            <mxPoint x="80" y="-800" as="targetPoint" />
          </mxGeometry>
        </mxCell>
        <mxCell id="Yzbr4fYwRBms3z87Z39M-16" value="&lt;div&gt;Ver de cantidad de ingredientes usados&lt;/div&gt;de forma diaria,&lt;br&gt;semanal y mensual." style="ellipse;whiteSpace=wrap;html=1;" vertex="1" parent="1">
          <mxGeometry x="345" y="-340" width="160" height="80" as="geometry" />
        </mxCell>
        <mxCell id="Yzbr4fYwRBms3z87Z39M-18" value="Cajero" style="shape=umlActor;verticalLabelPosition=bottom;verticalAlign=top;html=1;outlineConnect=0;" vertex="1" parent="1">
          <mxGeometry x="780" y="-840" width="30" height="60" as="geometry" />
        </mxCell>
        <mxCell id="Yzbr4fYwRBms3z87Z39M-20" value="Cobrar órdenes (Efectivo)" style="ellipse;whiteSpace=wrap;html=1;" vertex="1" parent="1">
          <mxGeometry x="365" y="-760" width="120" height="80" as="geometry" />
        </mxCell>
        <mxCell id="Yzbr4fYwRBms3z87Z39M-22" value="" style="endArrow=none;html=1;rounded=0;exitX=1;exitY=0.5;exitDx=0;exitDy=0;" edge="1" parent="1" source="Yzbr4fYwRBms3z87Z39M-5">
          <mxGeometry width="50" height="50" relative="1" as="geometry">
            <mxPoint x="760" y="-780" as="sourcePoint" />
            <mxPoint x="790" y="-810" as="targetPoint" />
          </mxGeometry>
        </mxCell>
        <mxCell id="Yzbr4fYwRBms3z87Z39M-23" value="" style="endArrow=classic;html=1;rounded=0;exitX=0;exitY=0.5;exitDx=0;exitDy=0;entryX=0.5;entryY=0.5;entryDx=0;entryDy=0;entryPerimeter=0;" edge="1" parent="1" source="Yzbr4fYwRBms3z87Z39M-5" target="Yzbr4fYwRBms3z87Z39M-2">
          <mxGeometry width="50" height="50" relative="1" as="geometry">
            <mxPoint x="520" y="-720" as="sourcePoint" />
            <mxPoint x="570" y="-770" as="targetPoint" />
          </mxGeometry>
        </mxCell>
        <mxCell id="Yzbr4fYwRBms3z87Z39M-24" value="" style="endArrow=none;html=1;rounded=0;exitX=1;exitY=0.5;exitDx=0;exitDy=0;" edge="1" parent="1" source="Yzbr4fYwRBms3z87Z39M-5">
          <mxGeometry width="50" height="50" relative="1" as="geometry">
            <mxPoint x="520" y="-720" as="sourcePoint" />
            <mxPoint x="780" y="-930" as="targetPoint" />
          </mxGeometry>
        </mxCell>
        <mxCell id="Yzbr4fYwRBms3z87Z39M-25" value="" style="endArrow=none;html=1;rounded=0;exitX=1;exitY=0.5;exitDx=0;exitDy=0;" edge="1" parent="1" source="Yzbr4fYwRBms3z87Z39M-20">
          <mxGeometry width="50" height="50" relative="1" as="geometry">
            <mxPoint x="610" y="-720" as="sourcePoint" />
            <mxPoint x="790" y="-810" as="targetPoint" />
          </mxGeometry>
        </mxCell>
        <mxCell id="Yzbr4fYwRBms3z87Z39M-26" value="" style="endArrow=classic;html=1;rounded=0;exitX=0;exitY=0.5;exitDx=0;exitDy=0;entryX=0.5;entryY=0.5;entryDx=0;entryDy=0;entryPerimeter=0;" edge="1" parent="1" source="Yzbr4fYwRBms3z87Z39M-20" target="Yzbr4fYwRBms3z87Z39M-2">
          <mxGeometry width="50" height="50" relative="1" as="geometry">
            <mxPoint x="520" y="-720" as="sourcePoint" />
            <mxPoint x="570" y="-770" as="targetPoint" />
          </mxGeometry>
        </mxCell>
        <mxCell id="Yzbr4fYwRBms3z87Z39M-27" value="" style="endArrow=none;html=1;rounded=0;exitX=1;exitY=1;exitDx=0;exitDy=0;exitPerimeter=0;entryX=0;entryY=0.5;entryDx=0;entryDy=0;" edge="1" parent="1" source="Yzbr4fYwRBms3z87Z39M-2" target="Yzbr4fYwRBms3z87Z39M-6">
          <mxGeometry width="50" height="50" relative="1" as="geometry">
            <mxPoint x="520" y="-620" as="sourcePoint" />
            <mxPoint x="570" y="-670" as="targetPoint" />
          </mxGeometry>
        </mxCell>
        <mxCell id="Yzbr4fYwRBms3z87Z39M-28" value="" style="endArrow=none;html=1;rounded=0;exitX=1;exitY=0.5;exitDx=0;exitDy=0;entryX=0.5;entryY=0.5;entryDx=0;entryDy=0;entryPerimeter=0;" edge="1" parent="1" source="Yzbr4fYwRBms3z87Z39M-8" target="Yzbr4fYwRBms3z87Z39M-10">
          <mxGeometry width="50" height="50" relative="1" as="geometry">
            <mxPoint x="520" y="-520" as="sourcePoint" />
            <mxPoint x="570" y="-570" as="targetPoint" />
          </mxGeometry>
        </mxCell>
        <mxCell id="Yzbr4fYwRBms3z87Z39M-29" value="" style="endArrow=none;html=1;rounded=0;entryX=0.5;entryY=0.5;entryDx=0;entryDy=0;entryPerimeter=0;exitX=1;exitY=0.5;exitDx=0;exitDy=0;" edge="1" parent="1" source="Yzbr4fYwRBms3z87Z39M-7" target="Yzbr4fYwRBms3z87Z39M-9">
          <mxGeometry width="50" height="50" relative="1" as="geometry">
            <mxPoint x="520" y="-320" as="sourcePoint" />
            <mxPoint x="570" y="-370" as="targetPoint" />
          </mxGeometry>
        </mxCell>
        <mxCell id="Yzbr4fYwRBms3z87Z39M-30" value="" style="endArrow=none;html=1;rounded=0;entryX=0.5;entryY=0.5;entryDx=0;entryDy=0;entryPerimeter=0;exitX=1;exitY=0.5;exitDx=0;exitDy=0;" edge="1" parent="1" source="Yzbr4fYwRBms3z87Z39M-16" target="Yzbr4fYwRBms3z87Z39M-9">
          <mxGeometry width="50" height="50" relative="1" as="geometry">
            <mxPoint x="640" y="-350" as="sourcePoint" />
            <mxPoint x="690" y="-400" as="targetPoint" />
          </mxGeometry>
        </mxCell>
        <mxCell id="Yzbr4fYwRBms3z87Z39M-32" value="&lt;b&gt;&lt;font style=&quot;font-size: 18px;&quot;&gt;Caso de uso&amp;nbsp;Restaurante&lt;/font&gt;&lt;/b&gt;" style="rounded=0;whiteSpace=wrap;html=1;labelBackgroundColor=#ffffff;" vertex="1" parent="1">
          <mxGeometry x="130" y="-1070" width="590" height="60" as="geometry" />
        </mxCell>
      </root>
    </mxGraphModel>
  </diagram>
</mxfile>
